<svg id="visual" viewBox="0 0 1920 1080" width="1920" height="1080" xmlns="http://www.w3.org/2000/svg" xmlns:xlink="http://www.w3.org/1999/xlink" version="1.1"><rect x="0" y="0" width="1920" height="1080" fill="#001220"></rect><path d="M0 680L45.7 685.8C91.3 691.7 182.7 703.3 274.2 708.7C365.7 714 457.3 713 548.8 705C640.3 697 731.7 682 823 667.7C914.3 653.3 1005.7 639.7 1097 647.8C1188.3 656 1279.7 686 1371.2 700.2C1462.7 714.3 1554.3 712.7 1645.8 701C1737.3 689.3 1828.7 667.7 1874.3 656.8L1920 646L1920 1081L1874.3 1081C1828.7 1081 1737.3 1081 1645.8 1081C1554.3 1081 1462.7 1081 1371.2 1081C1279.7 1081 1188.3 1081 1097 1081C1005.7 1081 914.3 1081 823 1081C731.7 1081 640.3 1081 548.8 1081C457.3 1081 365.7 1081 274.2 1081C182.7 1081 91.3 1081 45.7 1081L0 1081Z" fill="#f7770f"></path><path d="M0 734L45.7 727.5C91.3 721 182.7 708 274.2 706.3C365.7 704.7 457.3 714.3 548.8 727.5C640.3 740.7 731.7 757.3 823 770.8C914.3 784.3 1005.7 794.7 1097 803.5C1188.3 812.3 1279.7 819.7 1371.2 801.8C1462.7 784 1554.3 741 1645.8 723.7C1737.3 706.3 1828.7 714.7 1874.3 718.8L1920 723L1920 1081L1874.3 1081C1828.7 1081 1737.3 1081 1645.8 1081C1554.3 1081 1462.7 1081 1371.2 1081C1279.7 1081 1188.3 1081 1097 1081C1005.7 1081 914.3 1081 823 1081C731.7 1081 640.3 1081 548.8 1081C457.3 1081 365.7 1081 274.2 1081C182.7 1081 91.3 1081 45.7 1081L0 1081Z" fill="#f88317"></path><path d="M0 806L45.7 803.7C91.3 801.3 182.7 796.7 274.2 795.2C365.7 793.7 457.3 795.3 548.8 812C640.3 828.7 731.7 860.3 823 854.7C914.3 849 1005.7 806 1097 800.3C1188.3 794.7 1279.7 826.3 1371.2 833.8C1462.7 841.3 1554.3 824.7 1645.8 810.5C1737.3 796.3 1828.7 784.7 1874.3 778.8L1920 773L1920 1081L1874.3 1081C1828.7 1081 1737.3 1081 1645.8 1081C1554.3 1081 1462.7 1081 1371.2 1081C1279.7 1081 1188.3 1081 1097 1081C1005.7 1081 914.3 1081 823 1081C731.7 1081 640.3 1081 548.8 1081C457.3 1081 365.7 1081 274.2 1081C182.7 1081 91.3 1081 45.7 1081L0 1081Z" fill="#f98e20"></path><path d="M0 896L45.7 889.5C91.3 883 182.7 870 274.2 868.5C365.7 867 457.3 877 548.8 874.2C640.3 871.3 731.7 855.7 823 861C914.3 866.3 1005.7 892.7 1097 902C1188.3 911.3 1279.7 903.7 1371.2 902.5C1462.7 901.3 1554.3 906.7 1645.8 896.8C1737.3 887 1828.7 862 1874.3 849.5L1920 837L1920 1081L1874.3 1081C1828.7 1081 1737.3 1081 1645.8 1081C1554.3 1081 1462.7 1081 1371.2 1081C1279.7 1081 1188.3 1081 1097 1081C1005.7 1081 914.3 1081 823 1081C731.7 1081 640.3 1081 548.8 1081C457.3 1081 365.7 1081 274.2 1081C182.7 1081 91.3 1081 45.7 1081L0 1081Z" fill="#fa9a29"></path><path d="M0 912L45.7 917.3C91.3 922.7 182.7 933.3 274.2 939.7C365.7 946 457.3 948 548.8 941C640.3 934 731.7 918 823 910C914.3 902 1005.7 902 1097 903C1188.3 904 1279.7 906 1371.2 907.3C1462.7 908.7 1554.3 909.3 1645.8 914C1737.3 918.7 1828.7 927.3 1874.3 931.7L1920 936L1920 1081L1874.3 1081C1828.7 1081 1737.3 1081 1645.8 1081C1554.3 1081 1462.7 1081 1371.2 1081C1279.7 1081 1188.3 1081 1097 1081C1005.7 1081 914.3 1081 823 1081C731.7 1081 640.3 1081 548.8 1081C457.3 1081 365.7 1081 274.2 1081C182.7 1081 91.3 1081 45.7 1081L0 1081Z" fill="#fba432"></path><path d="M0 993L45.7 991.3C91.3 989.7 182.7 986.3 274.2 986.2C365.7 986 457.3 989 548.8 990.5C640.3 992 731.7 992 823 994.3C914.3 996.7 1005.7 1001.3 1097 1004.3C1188.3 1007.3 1279.7 1008.7 1371.2 1009.2C1462.7 1009.7 1554.3 1009.3 1645.8 1010.7C1737.3 1012 1828.7 1015 1874.3 1016.5L1920 1018L1920 1081L1874.3 1081C1828.7 1081 1737.3 1081 1645.8 1081C1554.3 1081 1462.7 1081 1371.2 1081C1279.7 1081 1188.3 1081 1097 1081C1005.7 1081 914.3 1081 823 1081C731.7 1081 640.3 1081 548.8 1081C457.3 1081 365.7 1081 274.2 1081C182.7 1081 91.3 1081 45.7 1081L0 1081Z" fill="#fcaf3c"></path></svg>