<svg id="visual" viewBox="0 0 1920 1080" width="1920" height="1080" xmlns="http://www.w3.org/2000/svg" xmlns:xlink="http://www.w3.org/1999/xlink" version="1.1"><path d="M0 271L29.2 263.8C58.3 256.7 116.7 242.3 174.8 224.3C233 206.3 291 184.7 349.2 173.8C407.3 163 465.7 163 523.8 170.2C582 177.3 640 191.7 698.2 180.8C756.3 170 814.7 134 872.8 123.2C931 112.3 989 126.7 1047.2 153.7C1105.3 180.7 1163.7 220.3 1221.8 227.7C1280 235 1338 210 1396.2 190.2C1454.3 170.3 1512.7 155.7 1570.8 144.8C1629 134 1687 127 1745.2 139.7C1803.3 152.3 1861.7 184.7 1890.8 200.8L1920 217L1920 0L1890.8 0C1861.7 0 1803.3 0 1745.2 0C1687 0 1629 0 1570.8 0C1512.7 0 1454.3 0 1396.2 0C1338 0 1280 0 1221.8 0C1163.7 0 1105.3 0 1047.2 0C989 0 931 0 872.8 0C814.7 0 756.3 0 698.2 0C640 0 582 0 523.8 0C465.7 0 407.3 0 349.2 0C291 0 233 0 174.8 0C116.7 0 58.3 0 29.2 0L0 0Z" fill="#ffc87a"></path><path d="M0 573L29.2 571.3C58.3 569.7 116.7 566.3 174.8 532.2C233 498 291 433 349.2 429.3C407.3 425.7 465.7 483.3 523.8 506.8C582 530.3 640 519.7 698.2 494.5C756.3 469.3 814.7 429.7 872.8 417C931 404.3 989 418.7 1047.2 431.2C1105.3 443.7 1163.7 454.3 1221.8 461.5C1280 468.7 1338 472.3 1396.2 479.7C1454.3 487 1512.7 498 1570.8 505.2C1629 512.3 1687 515.7 1745.2 537.2C1803.3 558.7 1861.7 598.3 1890.8 618.2L1920 638L1920 215L1890.8 198.8C1861.7 182.7 1803.3 150.3 1745.2 137.7C1687 125 1629 132 1570.8 142.8C1512.7 153.7 1454.3 168.3 1396.2 188.2C1338 208 1280 233 1221.8 225.7C1163.7 218.3 1105.3 178.7 1047.2 151.7C989 124.7 931 110.3 872.8 121.2C814.7 132 756.3 168 698.2 178.8C640 189.7 582 175.3 523.8 168.2C465.7 161 407.3 161 349.2 171.8C291 182.7 233 204.3 174.8 222.3C116.7 240.3 58.3 254.7 29.2 261.8L0 269Z" fill="#febc5c"></path><path d="M0 714L29.2 703.2C58.3 692.3 116.7 670.7 174.8 638.2C233 605.7 291 562.3 349.2 576.7C407.3 591 465.7 663 523.8 691.8C582 720.7 640 706.3 698.2 668.7C756.3 631 814.7 570 872.8 550.2C931 530.3 989 551.7 1047.2 558.8C1105.3 566 1163.7 559 1221.8 568C1280 577 1338 602 1396.2 621.8C1454.3 641.7 1512.7 656.3 1570.8 663.7C1629 671 1687 671 1745.2 681.7C1803.3 692.3 1861.7 713.7 1890.8 724.3L1920 735L1920 636L1890.8 616.2C1861.7 596.3 1803.3 556.7 1745.2 535.2C1687 513.7 1629 510.3 1570.8 503.2C1512.7 496 1454.3 485 1396.2 477.7C1338 470.3 1280 466.7 1221.8 459.5C1163.7 452.3 1105.3 441.7 1047.2 429.2C989 416.7 931 402.3 872.8 415C814.7 427.7 756.3 467.3 698.2 492.5C640 517.7 582 528.3 523.8 504.8C465.7 481.3 407.3 423.7 349.2 427.3C291 431 233 496 174.8 530.2C116.7 564.3 58.3 567.7 29.2 569.3L0 571Z" fill="#fcaf3c"></path><path d="M0 973L29.2 974.8C58.3 976.7 116.7 980.3 174.8 984C233 987.7 291 991.3 349.2 987.7C407.3 984 465.7 973 523.8 967.5C582 962 640 962 698.2 960.2C756.3 958.3 814.7 954.7 872.8 960.2C931 965.7 989 980.3 1047.2 973.2C1105.3 966 1163.7 937 1221.8 928C1280 919 1338 930 1396.2 928.2C1454.3 926.3 1512.7 911.7 1570.8 906.2C1629 900.7 1687 904.3 1745.2 924.2C1803.3 944 1861.7 980 1890.8 998L1920 1016L1920 733L1890.8 722.3C1861.7 711.7 1803.3 690.3 1745.2 679.7C1687 669 1629 669 1570.8 661.7C1512.7 654.3 1454.3 639.7 1396.2 619.8C1338 600 1280 575 1221.8 566C1163.7 557 1105.3 564 1047.2 556.8C989 549.7 931 528.3 872.8 548.2C814.7 568 756.3 629 698.2 666.7C640 704.3 582 718.7 523.8 689.8C465.7 661 407.3 589 349.2 574.7C291 560.3 233 603.7 174.8 636.2C116.7 668.7 58.3 690.3 29.2 701.2L0 712Z" fill="#dd9832"></path><path d="M0 1081L29.2 1081C58.3 1081 116.7 1081 174.8 1081C233 1081 291 1081 349.2 1081C407.3 1081 465.7 1081 523.8 1081C582 1081 640 1081 698.2 1081C756.3 1081 814.7 1081 872.8 1081C931 1081 989 1081 1047.2 1081C1105.3 1081 1163.7 1081 1221.8 1081C1280 1081 1338 1081 1396.2 1081C1454.3 1081 1512.7 1081 1570.8 1081C1629 1081 1687 1081 1745.2 1081C1803.3 1081 1861.7 1081 1890.8 1081L1920 1081L1920 1014L1890.8 996C1861.7 978 1803.3 942 1745.2 922.2C1687 902.3 1629 898.7 1570.8 904.2C1512.7 909.7 1454.3 924.3 1396.2 926.2C1338 928 1280 917 1221.8 926C1163.7 935 1105.3 964 1047.2 971.2C989 978.3 931 963.7 872.8 958.2C814.7 952.7 756.3 956.3 698.2 958.2C640 960 582 960 523.8 965.5C465.7 971 407.3 982 349.2 985.7C291 989.3 233 985.7 174.8 982C116.7 978.3 58.3 974.7 29.2 972.8L0 971Z" fill="#be8128"></path></svg>